<?xml version="1.0" encoding="UTF-8" standalone="no"?>
<!DOCTYPE svg PUBLIC "-//W3C//DTD SVG 1.1//EN"
 "http://www.w3.org/Graphics/SVG/1.1/DTD/svg11.dtd">
<!-- Generated by graphviz version 2.40.1 (20161225.0304)
 -->
<!-- Title: callgraph Pages: 1 -->
<svg width="274pt" height="100pt"
 viewBox="0.00 0.00 395.00 144.00" xmlns="http://www.w3.org/2000/svg" xmlns:xlink="http://www.w3.org/1999/xlink">
<g id="graph0" class="graph" transform="scale(.6944 .6944) rotate(0) translate(4 140)">
<title>callgraph</title>
<polygon fill="#ffffff" stroke="transparent" points="-4,4 -4,-140 391,-140 391,4 -4,4"/>
<g id="clust1" class="cluster">
<title>cluster</title>
<polygon fill="#ffffff" stroke="#ffffff" points="8,-8 8,-128 379,-128 379,-8 8,-8"/>
<text text-anchor="middle" x="193.5" y="-122.2" font-family="Bitstream Vera Sans" font-size="1.00" fill="#000000">Cores</text>
</g>
<!-- vasprintf -->
<g id="node1" class="node">
<title>vasprintf</title>
<g id="a_node1"><a xlink:href="asprintf.html" xlink:title="\N" target="_top">
<polygon fill="#c4cff3" stroke="#000000" points="16,-72.5 16,-109.5 148,-109.5 148,-72.5 16,-72.5"/>
<text text-anchor="middle" x="82" y="-84.7" font-family="sans" font-size="26.00" fill="#000000">vasprintf</text>
</a>
</g>
</g>
<!-- _vscprintf_so -->
<g id="node2" class="node">
<title>_vscprintf_so</title>
<g id="a_node2"><a xlink:href="asprintf.html" xlink:title="\N" target="_top">
<polygon fill="#c4cff3" stroke="#000000" points="184,-44.5 184,-81.5 371,-81.5 371,-44.5 184,-44.5"/>
<text text-anchor="middle" x="277.5" y="-56.7" font-family="sans" font-size="26.00" fill="#000000">_vscprintf_so</text>
</a>
</g>
</g>
<!-- vasprintf&#45;&gt;_vscprintf_so -->
<g id="edge1" class="edge">
<title>vasprintf&#45;&gt;_vscprintf_so</title>
<path fill="none" stroke="#000000" d="M148.1874,-81.5205C156.5577,-80.3217 165.2739,-79.0733 174.0516,-77.8161"/>
<polygon fill="#000000" stroke="#000000" points="174.5701,-81.2777 183.9729,-76.3952 173.5777,-74.3484 174.5701,-81.2777"/>
</g>
<!-- asprintf -->
<g id="node3" class="node">
<title>asprintf</title>
<g id="a_node3"><a xlink:href="asprintf.html" xlink:title="\N" target="_top">
<polygon fill="#c4cff3" stroke="#000000" points="24,-16.5 24,-53.5 140,-53.5 140,-16.5 24,-16.5"/>
<text text-anchor="middle" x="82" y="-28.7" font-family="sans" font-size="26.00" fill="#000000">asprintf</text>
</a>
</g>
</g>
<!-- asprintf&#45;&gt;_vscprintf_so -->
<g id="edge2" class="edge">
<title>asprintf&#45;&gt;_vscprintf_so</title>
<path fill="none" stroke="#000000" d="M140.1271,-43.3251C150.7477,-44.8462 162.1195,-46.4749 173.6049,-48.1199"/>
<polygon fill="#000000" stroke="#000000" points="173.3161,-51.6142 183.7113,-49.5674 174.3086,-44.6849 173.3161,-51.6142"/>
</g>
</g>
</svg>
