<?xml version="1.0" encoding="UTF-8" standalone="no"?>
<!DOCTYPE svg PUBLIC "-//W3C//DTD SVG 1.1//EN"
 "http://www.w3.org/Graphics/SVG/1.1/DTD/svg11.dtd">
<!-- Generated by graphviz version 2.40.1 (20161225.0304)
 -->
<!-- Title: callgraph Pages: 1 -->
<svg width="213pt" height="113pt"
 viewBox="0.00 0.00 306.00 162.00" xmlns="http://www.w3.org/2000/svg" xmlns:xlink="http://www.w3.org/1999/xlink">
<g id="graph0" class="graph" transform="scale(.6944 .6944) rotate(0) translate(4 158)">
<title>callgraph</title>
<polygon fill="#ffffff" stroke="transparent" points="-4,4 -4,-158 302,-158 302,4 -4,4"/>
<g id="clust1" class="cluster">
<title>cluster</title>
<polygon fill="#ffffff" stroke="#ffffff" points="8,-8 8,-146 290,-146 290,-8 8,-8"/>
<text text-anchor="middle" x="149" y="-140.2" font-family="Bitstream Vera Sans" font-size="1.00" fill="#000000">Cores</text>
</g>
<!-- vasprintf -->
<g id="node1" class="node">
<title>vasprintf</title>
<g id="a_node1"><a xlink:href="asprintf.html" xlink:title="\N" target="_top">
<polygon fill="#c4cff3" stroke="#000000" points="150,-90.5 150,-127.5 282,-127.5 282,-90.5 150,-90.5"/>
<text text-anchor="middle" x="216" y="-102.7" font-family="sans" font-size="26.00" fill="#000000">vasprintf</text>
</a>
</g>
</g>
<!-- _vscprintf_so -->
<g id="node2" class="node">
<title>_vscprintf_so</title>
<g id="a_node2"><a xlink:href="asprintf.html" xlink:title="\N" target="_top">
<polygon fill="#c4cff3" stroke="#000000" points="55.5,-16.5 55.5,-53.5 242.5,-53.5 242.5,-16.5 55.5,-16.5"/>
<text text-anchor="middle" x="149" y="-28.7" font-family="sans" font-size="26.00" fill="#000000">_vscprintf_so</text>
</a>
</g>
</g>
<!-- vasprintf&#45;&gt;_vscprintf_so -->
<g id="edge1" class="edge">
<title>vasprintf&#45;&gt;_vscprintf_so</title>
<path fill="none" stroke="#000000" d="M196.25,-90.3267C196.25,-90.3267 196.25,-63.6674 196.25,-63.6674"/>
<polygon fill="#000000" stroke="#000000" points="199.7501,-63.6673 196.25,-53.6674 192.7501,-63.6674 199.7501,-63.6673"/>
</g>
<!-- asprintf -->
<g id="node3" class="node">
<title>asprintf</title>
<g id="a_node3"><a xlink:href="asprintf.html" xlink:title="\N" target="_top">
<polygon fill="#c4cff3" stroke="#000000" points="16,-90.5 16,-127.5 132,-127.5 132,-90.5 16,-90.5"/>
<text text-anchor="middle" x="74" y="-102.7" font-family="sans" font-size="26.00" fill="#000000">asprintf</text>
</a>
</g>
</g>
<!-- asprintf&#45;&gt;_vscprintf_so -->
<g id="edge2" class="edge">
<title>asprintf&#45;&gt;_vscprintf_so</title>
<path fill="none" stroke="#000000" d="M93.75,-90.3267C93.75,-90.3267 93.75,-63.6674 93.75,-63.6674"/>
<polygon fill="#000000" stroke="#000000" points="97.2501,-63.6673 93.75,-53.6674 90.2501,-63.6674 97.2501,-63.6673"/>
</g>
</g>
</svg>
