<?xml version="1.0" encoding="UTF-8" standalone="no"?>
<!DOCTYPE svg PUBLIC "-//W3C//DTD SVG 1.1//EN"
 "http://www.w3.org/Graphics/SVG/1.1/DTD/svg11.dtd">
<!-- Generated by graphviz version 2.40.1 (20161225.0304)
 -->
<!-- Title: callgraph Pages: 1 -->
<svg width="79pt" height="63pt"
 viewBox="0.00 0.00 114.00 90.00" xmlns="http://www.w3.org/2000/svg" xmlns:xlink="http://www.w3.org/1999/xlink">
<g id="graph0" class="graph" transform="scale(.6944 .6944) rotate(0) translate(4 86)">
<title>callgraph</title>
<polygon fill="#ffffff" stroke="transparent" points="-4,4 -4,-86 110,-86 110,4 -4,4"/>
<g id="clust1" class="cluster">
<title>cluster</title>
<polygon fill="#ffffff" stroke="#ffffff" points="8,-10 8,-74 98,-74 98,-10 8,-10"/>
<text text-anchor="middle" x="53" y="-68.2" font-family="Bitstream Vera Sans" font-size="1.00" fill="#000000">Cores</text>
</g>
<!-- Dir -->
<g id="node1" class="node">
<title>Dir</title>
<g id="a_node1"><a xlink:href="Dir.html" xlink:title="\N" target="_top">
<polygon fill="#e9d66b" stroke="#000000" points="16.5,-18.5 16.5,-55.5 71.5,-55.5 71.5,-18.5 16.5,-18.5"/>
<text text-anchor="middle" x="44" y="-30.7" font-family="sans" font-size="26.00" fill="#000000">Dir</text>
</a>
</g>
</g>
<!-- Dir&#45;&gt;Dir -->
<g id="edge1" class="edge">
<title>Dir&#45;&gt;Dir</title>
<path fill="none" stroke="#000000" d="M44,-55.9336C44,-65.0368 44,-74 44,-74 44,-74 89.5,-74 89.5,-74 89.5,-74 89.5,0 89.5,0 89.5,0 44,0 44,0 44,0 44,-8.0664 44,-8.0664"/>
<polygon fill="#000000" stroke="#000000" points="40.5001,-8.0664 44,-18.0664 47.5001,-8.0665 40.5001,-8.0664"/>
</g>
</g>
</svg>
