<?xml version="1.0" encoding="UTF-8" standalone="no"?>
<!DOCTYPE svg PUBLIC "-//W3C//DTD SVG 1.1//EN"
 "http://www.w3.org/Graphics/SVG/1.1/DTD/svg11.dtd">
<!-- Generated by graphviz version 2.40.1 (20161225.0304)
 -->
<!-- Title: callgraph Pages: 1 -->
<svg width="66pt" height="74pt"
 viewBox="0.00 0.00 95.00 106.00" xmlns="http://www.w3.org/2000/svg" xmlns:xlink="http://www.w3.org/1999/xlink">
<g id="graph0" class="graph" transform="scale(.6944 .6944) rotate(0) translate(4 102)">
<title>callgraph</title>
<polygon fill="#ffffff" stroke="transparent" points="-4,4 -4,-102 91,-102 91,4 -4,4"/>
<g id="clust1" class="cluster">
<title>cluster</title>
<polygon fill="#ffffff" stroke="#ffffff" points="8,-8 8,-90 79,-90 79,-8 8,-8"/>
<text text-anchor="middle" x="43.5" y="-84.2" font-family="Bitstream Vera Sans" font-size="1.00" fill="#000000">Cores</text>
</g>
<!-- Dir -->
<g id="node1" class="node">
<title>Dir</title>
<g id="a_node1"><a xlink:href="Dir.html" xlink:title="\N" target="_top">
<polygon fill="#e9d66b" stroke="#000000" points="16,-16.5 16,-53.5 71,-53.5 71,-16.5 16,-16.5"/>
<text text-anchor="middle" x="43.5" y="-28.7" font-family="sans" font-size="26.00" fill="#000000">Dir</text>
</a>
</g>
</g>
<!-- Dir&#45;&gt;Dir -->
<g id="edge1" class="edge">
<title>Dir&#45;&gt;Dir</title>
<path fill="none" stroke="#000000" d="M33.731,-53.657C32.228,-63.304 35.4844,-72 43.5,-72 48.5098,-72 51.6604,-68.6031 52.952,-63.7002"/>
<polygon fill="#000000" stroke="#000000" points="56.4517,-63.7624 53.269,-53.657 49.4552,-63.5415 56.4517,-63.7624"/>
</g>
</g>
</svg>
