<?xml version="1.0" encoding="UTF-8" standalone="no"?>
<!DOCTYPE svg PUBLIC "-//W3C//DTD SVG 1.1//EN"
 "http://www.w3.org/Graphics/SVG/1.1/DTD/svg11.dtd">
<!-- Generated by graphviz version 2.40.1 (20161225.0304)
 -->
<!-- Title: legenda Pages: 1 -->
<svg width="119pt" height="327pt"
 viewBox="0.00 0.00 171.00 471.00" xmlns="http://www.w3.org/2000/svg" xmlns:xlink="http://www.w3.org/1999/xlink">
<g id="graph0" class="graph" transform="scale(.6944 .6944) rotate(0) translate(4 467)">
<title>legenda</title>
<polygon fill="#ffffff" stroke="transparent" points="-4,4 -4,-467 167,-467 167,4 -4,4"/>
<g id="clust1" class="cluster">
<title>cluster</title>
<polygon fill="none" stroke="#666666" stroke-dasharray="5,2" points="8,-8 8,-455 155,-455 155,-8 8,-8"/>
<text text-anchor="middle" x="81.5" y="-391" font-family="Sans" font-size="30.00" fill="#000000">Legenda</text>
</g>
<!-- asprintf -->
<g id="node1" class="node">
<title>asprintf</title>
<g id="a_node1"><a xlink:href="asprintf.html" xlink:title="\N" target="_top">
<polygon fill="#c4cff3" stroke="#000000" points="23.5,-296.5 23.5,-333.5 139.5,-333.5 139.5,-296.5 23.5,-296.5"/>
<text text-anchor="middle" x="81.5" y="-308.7" font-family="sans" font-size="26.00" fill="#000000">asprintf</text>
</a>
</g>
</g>
<!-- Dir -->
<g id="node2" class="node">
<title>Dir</title>
<g id="a_node2"><a xlink:href="Dir.html" xlink:title="\N" target="_top">
<polygon fill="#e9d66b" stroke="#000000" points="54,-240.5 54,-277.5 109,-277.5 109,-240.5 54,-240.5"/>
<text text-anchor="middle" x="81.5" y="-252.7" font-family="sans" font-size="26.00" fill="#000000">Dir</text>
</a>
</g>
</g>
<!-- Lista -->
<g id="node3" class="node">
<title>Lista</title>
<g id="a_node3"><a xlink:href="Lista.html" xlink:title="\N" target="_top">
<polygon fill="#a7f5a3" stroke="#000000" points="42,-184.5 42,-221.5 121,-221.5 121,-184.5 42,-184.5"/>
<text text-anchor="middle" x="81.5" y="-196.7" font-family="sans" font-size="26.00" fill="#000000">Lista</text>
</a>
</g>
</g>
<!-- Trace -->
<g id="node4" class="node">
<title>Trace</title>
<g id="a_node4"><a xlink:href="Trace.html" xlink:title="\N" target="_top">
<polygon fill="#cae00d" stroke="#000000" points="38.5,-128.5 38.5,-165.5 124.5,-165.5 124.5,-128.5 38.5,-128.5"/>
<text text-anchor="middle" x="81.5" y="-140.7" font-family="sans" font-size="26.00" fill="#000000">Trace</text>
</a>
</g>
</g>
<!-- WinMain -->
<g id="node5" class="node">
<title>WinMain</title>
<g id="a_node5"><a xlink:href="WinMain.html" xlink:title="\N" target="_top">
<polygon fill="#fffab8" stroke="#000000" points="17.5,-72.5 17.5,-109.5 145.5,-109.5 145.5,-72.5 17.5,-72.5"/>
<text text-anchor="middle" x="81.5" y="-84.7" font-family="sans" font-size="26.00" fill="#000000">WinMain</text>
</a>
</g>
</g>
<!-- WndProc -->
<g id="node6" class="node">
<title>WndProc</title>
<g id="a_node6"><a xlink:href="WndProc.html" xlink:title="\N" target="_top">
<polygon fill="#e1a95f" stroke="#000000" points="16,-16.5 16,-53.5 147,-53.5 147,-16.5 16,-16.5"/>
<text text-anchor="middle" x="81.5" y="-28.7" font-family="sans" font-size="26.00" fill="#000000">WndProc</text>
</a>
</g>
</g>
</g>
</svg>
