<?xml version="1.0" encoding="UTF-8" standalone="no"?>
<!DOCTYPE svg PUBLIC "-//W3C//DTD SVG 1.1//EN"
 "http://www.w3.org/Graphics/SVG/1.1/DTD/svg11.dtd">
<!-- Generated by graphviz version 2.40.1 (20161225.0304)
 -->
<!-- Title: callgraph Pages: 1 -->
<svg width="1017pt" height="61pt"
 viewBox="0.00 0.00 1465.00 88.00" xmlns="http://www.w3.org/2000/svg" xmlns:xlink="http://www.w3.org/1999/xlink">
<g id="graph0" class="graph" transform="scale(.6944 .6944) rotate(0) translate(4 84)">
<title>callgraph</title>
<polygon fill="#ffffff" stroke="transparent" points="-4,4 -4,-84 1461,-84 1461,4 -4,4"/>
<g id="clust1" class="cluster">
<title>cluster</title>
<polygon fill="#ffffff" stroke="#ffffff" points="8,-8 8,-72 1449,-72 1449,-8 8,-8"/>
<text text-anchor="middle" x="728.5" y="-66.2" font-family="Bitstream Vera Sans" font-size="1.00" fill="#000000">Cores</text>
</g>
<!-- Corpo -->
<g id="node1" class="node">
<title>Corpo</title>
<g id="a_node1"><a xlink:href="Lista.html" xlink:title="\N" target="_top">
<polygon fill="#a7f5a3" stroke="#000000" points="1348.5,-16.5 1348.5,-53.5 1441.5,-53.5 1441.5,-16.5 1348.5,-16.5"/>
<text text-anchor="middle" x="1395" y="-28.7" font-family="sans" font-size="26.00" fill="#000000">Corpo</text>
</a>
</g>
</g>
<!-- PreencheListBox -->
<g id="node2" class="node">
<title>PreencheListBox</title>
<g id="a_node2"><a xlink:href="Lista.html" xlink:title="\N" target="_top">
<polygon fill="#a7f5a3" stroke="#000000" points="1097.5,-16.5 1097.5,-53.5 1330.5,-53.5 1330.5,-16.5 1097.5,-16.5"/>
<text text-anchor="middle" x="1214" y="-28.7" font-family="sans" font-size="26.00" fill="#000000">PreencheListBox</text>
</a>
</g>
</g>
<!-- Grava -->
<g id="node3" class="node">
<title>Grava</title>
<g id="a_node3"><a xlink:href="Lista.html" xlink:title="\N" target="_top">
<polygon fill="#a7f5a3" stroke="#000000" points="984.5,-16.5 984.5,-53.5 1079.5,-53.5 1079.5,-16.5 984.5,-16.5"/>
<text text-anchor="middle" x="1032" y="-28.7" font-family="sans" font-size="26.00" fill="#000000">Grava</text>
</a>
</g>
</g>
<!-- ArqNovo -->
<g id="node4" class="node">
<title>ArqNovo</title>
<g id="a_node4"><a xlink:href="Lista.html" xlink:title="\N" target="_top">
<polygon fill="#a7f5a3" stroke="#000000" points="838,-16.5 838,-53.5 966,-53.5 966,-16.5 838,-16.5"/>
<text text-anchor="middle" x="902" y="-28.7" font-family="sans" font-size="26.00" fill="#000000">ArqNovo</text>
</a>
</g>
</g>
<!-- Le -->
<g id="node5" class="node">
<title>Le</title>
<g id="a_node5"><a xlink:href="Lista.html" xlink:title="\N" target="_top">
<polygon fill="#a7f5a3" stroke="#000000" points="766,-16.5 766,-53.5 820,-53.5 820,-16.5 766,-16.5"/>
<text text-anchor="middle" x="793" y="-28.7" font-family="sans" font-size="26.00" fill="#000000">Le</text>
</a>
</g>
</g>
<!-- ArqLista -->
<g id="node6" class="node">
<title>ArqLista</title>
<g id="a_node6"><a xlink:href="Lista.html" xlink:title="\N" target="_top">
<polygon fill="#a7f5a3" stroke="#000000" points="624.5,-16.5 624.5,-53.5 747.5,-53.5 747.5,-16.5 624.5,-16.5"/>
<text text-anchor="middle" x="686" y="-28.7" font-family="sans" font-size="26.00" fill="#000000">ArqLista</text>
</a>
</g>
</g>
<!-- Preenche -->
<g id="node7" class="node">
<title>Preenche</title>
<g id="a_node7"><a xlink:href="Lista.html" xlink:title="\N" target="_top">
<polygon fill="#a7f5a3" stroke="#000000" points="468,-16.5 468,-53.5 606,-53.5 606,-16.5 468,-16.5"/>
<text text-anchor="middle" x="537" y="-28.7" font-family="sans" font-size="26.00" fill="#000000">Preenche</text>
</a>
</g>
</g>
<!-- Cabecalho -->
<g id="node8" class="node">
<title>Cabecalho</title>
<g id="a_node8"><a xlink:href="Lista.html" xlink:title="\N" target="_top">
<polygon fill="#a7f5a3" stroke="#000000" points="296.5,-16.5 296.5,-53.5 449.5,-53.5 449.5,-16.5 296.5,-16.5"/>
<text text-anchor="middle" x="373" y="-28.7" font-family="sans" font-size="26.00" fill="#000000">Cabecalho</text>
</a>
</g>
</g>
<!-- Inicializa -->
<g id="node9" class="node">
<title>Inicializa</title>
<g id="a_node9"><a xlink:href="Lista.html" xlink:title="\N" target="_top">
<polygon fill="#a7f5a3" stroke="#000000" points="148,-16.5 148,-53.5 278,-53.5 278,-16.5 148,-16.5"/>
<text text-anchor="middle" x="213" y="-28.7" font-family="sans" font-size="26.00" fill="#000000">Inicializa</text>
</a>
</g>
</g>
<!-- Rodape -->
<g id="node10" class="node">
<title>Rodape</title>
<g id="a_node10"><a xlink:href="Lista.html" xlink:title="\N" target="_top">
<polygon fill="#a7f5a3" stroke="#000000" points="16,-16.5 16,-53.5 130,-53.5 130,-16.5 16,-16.5"/>
<text text-anchor="middle" x="73" y="-28.7" font-family="sans" font-size="26.00" fill="#000000">Rodape</text>
</a>
</g>
</g>
</g>
</svg>
