<?xml version="1.0" encoding="UTF-8" standalone="no"?>
<!DOCTYPE svg PUBLIC "-//W3C//DTD SVG 1.1//EN"
 "http://www.w3.org/Graphics/SVG/1.1/DTD/svg11.dtd">
<!-- Generated by graphviz version 2.40.1 (20161225.0304)
 -->
<!-- Title: callgraph Pages: 1 -->
<svg width="190pt" height="411pt"
 viewBox="0.00 0.00 273.00 592.00" xmlns="http://www.w3.org/2000/svg" xmlns:xlink="http://www.w3.org/1999/xlink">
<g id="graph0" class="graph" transform="scale(.6944 .6944) rotate(0) translate(4 588)">
<title>callgraph</title>
<polygon fill="#ffffff" stroke="transparent" points="-4,4 -4,-588 269,-588 269,4 -4,4"/>
<g id="clust1" class="cluster">
<title>cluster</title>
<polygon fill="#ffffff" stroke="#ffffff" points="8,-8 8,-576 257,-576 257,-8 8,-8"/>
<text text-anchor="middle" x="132.5" y="-570.2" font-family="Bitstream Vera Sans" font-size="1.00" fill="#000000">Cores</text>
</g>
<!-- Le -->
<g id="node1" class="node">
<title>Le</title>
<g id="a_node1"><a xlink:href="Lista.html" xlink:title="\N" target="_top">
<polygon fill="#a7f5a3" stroke="#000000" points="105.5,-520.5 105.5,-557.5 159.5,-557.5 159.5,-520.5 105.5,-520.5"/>
<text text-anchor="middle" x="132.5" y="-532.7" font-family="sans" font-size="26.00" fill="#000000">Le</text>
</a>
</g>
</g>
<!-- Corpo -->
<g id="node2" class="node">
<title>Corpo</title>
<g id="a_node2"><a xlink:href="Lista.html" xlink:title="\N" target="_top">
<polygon fill="#a7f5a3" stroke="#000000" points="86,-464.5 86,-501.5 179,-501.5 179,-464.5 86,-464.5"/>
<text text-anchor="middle" x="132.5" y="-476.7" font-family="sans" font-size="26.00" fill="#000000">Corpo</text>
</a>
</g>
</g>
<!-- ArqLista -->
<g id="node3" class="node">
<title>ArqLista</title>
<g id="a_node3"><a xlink:href="Lista.html" xlink:title="\N" target="_top">
<polygon fill="#a7f5a3" stroke="#000000" points="71,-408.5 71,-445.5 194,-445.5 194,-408.5 71,-408.5"/>
<text text-anchor="middle" x="132.5" y="-420.7" font-family="sans" font-size="26.00" fill="#000000">ArqLista</text>
</a>
</g>
</g>
<!-- Preenche -->
<g id="node4" class="node">
<title>Preenche</title>
<g id="a_node4"><a xlink:href="Lista.html" xlink:title="\N" target="_top">
<polygon fill="#a7f5a3" stroke="#000000" points="63.5,-352.5 63.5,-389.5 201.5,-389.5 201.5,-352.5 63.5,-352.5"/>
<text text-anchor="middle" x="132.5" y="-364.7" font-family="sans" font-size="26.00" fill="#000000">Preenche</text>
</a>
</g>
</g>
<!-- Grava -->
<g id="node5" class="node">
<title>Grava</title>
<g id="a_node5"><a xlink:href="Lista.html" xlink:title="\N" target="_top">
<polygon fill="#a7f5a3" stroke="#000000" points="85,-296.5 85,-333.5 180,-333.5 180,-296.5 85,-296.5"/>
<text text-anchor="middle" x="132.5" y="-308.7" font-family="sans" font-size="26.00" fill="#000000">Grava</text>
</a>
</g>
</g>
<!-- Rodape -->
<g id="node6" class="node">
<title>Rodape</title>
<g id="a_node6"><a xlink:href="Lista.html" xlink:title="\N" target="_top">
<polygon fill="#a7f5a3" stroke="#000000" points="75.5,-240.5 75.5,-277.5 189.5,-277.5 189.5,-240.5 75.5,-240.5"/>
<text text-anchor="middle" x="132.5" y="-252.7" font-family="sans" font-size="26.00" fill="#000000">Rodape</text>
</a>
</g>
</g>
<!-- PreencheListBox -->
<g id="node7" class="node">
<title>PreencheListBox</title>
<g id="a_node7"><a xlink:href="Lista.html" xlink:title="\N" target="_top">
<polygon fill="#a7f5a3" stroke="#000000" points="16,-184.5 16,-221.5 249,-221.5 249,-184.5 16,-184.5"/>
<text text-anchor="middle" x="132.5" y="-196.7" font-family="sans" font-size="26.00" fill="#000000">PreencheListBox</text>
</a>
</g>
</g>
<!-- Cabecalho -->
<g id="node8" class="node">
<title>Cabecalho</title>
<g id="a_node8"><a xlink:href="Lista.html" xlink:title="\N" target="_top">
<polygon fill="#a7f5a3" stroke="#000000" points="56,-128.5 56,-165.5 209,-165.5 209,-128.5 56,-128.5"/>
<text text-anchor="middle" x="132.5" y="-140.7" font-family="sans" font-size="26.00" fill="#000000">Cabecalho</text>
</a>
</g>
</g>
<!-- ArqNovo -->
<g id="node9" class="node">
<title>ArqNovo</title>
<g id="a_node9"><a xlink:href="Lista.html" xlink:title="\N" target="_top">
<polygon fill="#a7f5a3" stroke="#000000" points="68.5,-72.5 68.5,-109.5 196.5,-109.5 196.5,-72.5 68.5,-72.5"/>
<text text-anchor="middle" x="132.5" y="-84.7" font-family="sans" font-size="26.00" fill="#000000">ArqNovo</text>
</a>
</g>
</g>
<!-- Inicializa -->
<g id="node10" class="node">
<title>Inicializa</title>
<g id="a_node10"><a xlink:href="Lista.html" xlink:title="\N" target="_top">
<polygon fill="#a7f5a3" stroke="#000000" points="67.5,-16.5 67.5,-53.5 197.5,-53.5 197.5,-16.5 67.5,-16.5"/>
<text text-anchor="middle" x="132.5" y="-28.7" font-family="sans" font-size="26.00" fill="#000000">Inicializa</text>
</a>
</g>
</g>
</g>
</svg>
