<?xml version="1.0" encoding="UTF-8" standalone="no"?>
<!DOCTYPE svg PUBLIC "-//W3C//DTD SVG 1.1//EN"
 "http://www.w3.org/Graphics/SVG/1.1/DTD/svg11.dtd">
<!-- Generated by graphviz version 2.40.1 (20161225.0304)
 -->
<!-- Title: callgraph Pages: 1 -->
<svg width="1017pt" height="215pt"
 viewBox="0.00 0.00 1465.00 310.00" xmlns="http://www.w3.org/2000/svg" xmlns:xlink="http://www.w3.org/1999/xlink">
<g id="graph0" class="graph" transform="scale(.6944 .6944) rotate(0) translate(4 306)">
<title>callgraph</title>
<polygon fill="#ffffff" stroke="transparent" points="-4,4 -4,-306 1461,-306 1461,4 -4,4"/>
<g id="clust1" class="cluster">
<title>cluster</title>
<polygon fill="#ffffff" stroke="#ffffff" points="8,-8 8,-294 1449,-294 1449,-8 8,-8"/>
<text text-anchor="middle" x="728.5" y="-288.2" font-family="Bitstream Vera Sans" font-size="1.00" fill="#000000">Cores</text>
</g>
<!-- Preenche -->
<g id="node1" class="node">
<title>Preenche</title>
<g id="a_node1"><a xlink:href="Lista.html" xlink:title="\N" target="_top">
<polygon fill="#a7f5a3" stroke="#000000" points="827,-164.5 827,-201.5 965,-201.5 965,-164.5 827,-164.5"/>
<text text-anchor="middle" x="896" y="-176.7" font-family="sans" font-size="26.00" fill="#000000">Preenche</text>
</a>
</g>
</g>
<!-- asprintf -->
<g id="node2" class="node">
<title>asprintf</title>
<g id="a_node2"><a xlink:href="asprintf.html" xlink:title="\N" target="_top">
<polygon fill="#c4cff3" stroke="#000000" points="998,-90.5 998,-127.5 1114,-127.5 1114,-90.5 998,-90.5"/>
<text text-anchor="middle" x="1056" y="-102.7" font-family="sans" font-size="26.00" fill="#000000">asprintf</text>
</a>
</g>
</g>
<!-- Preenche&#45;&gt;asprintf -->
<g id="edge1" class="edge">
<title>Preenche&#45;&gt;asprintf</title>
<path fill="none" stroke="#000000" d="M906.5,-164.4795C906.5,-159.2725 906.5,-155 906.5,-155 906.5,-155 1017.5,-155 1017.5,-155 1017.5,-155 1017.5,-137.71 1017.5,-137.71"/>
<polygon fill="#000000" stroke="#000000" points="1021.0001,-137.7099 1017.5,-127.71 1014.0001,-137.71 1021.0001,-137.7099"/>
</g>
<!-- _vscprintf_so -->
<g id="node4" class="node">
<title>_vscprintf_so</title>
<g id="a_node4"><a xlink:href="asprintf.html" xlink:title="\N" target="_top">
<polygon fill="#c4cff3" stroke="#000000" points="891.5,-16.5 891.5,-53.5 1078.5,-53.5 1078.5,-16.5 891.5,-16.5"/>
<text text-anchor="middle" x="985" y="-28.7" font-family="sans" font-size="26.00" fill="#000000">_vscprintf_so</text>
</a>
</g>
</g>
<!-- asprintf&#45;&gt;_vscprintf_so -->
<g id="edge5" class="edge">
<title>asprintf&#45;&gt;_vscprintf_so</title>
<path fill="none" stroke="#000000" d="M1038.25,-90.3267C1038.25,-90.3267 1038.25,-63.6674 1038.25,-63.6674"/>
<polygon fill="#000000" stroke="#000000" points="1041.7501,-63.6673 1038.25,-53.6674 1034.7501,-63.6674 1041.7501,-63.6673"/>
</g>
<!-- vasprintf -->
<g id="node3" class="node">
<title>vasprintf</title>
<g id="a_node3"><a xlink:href="asprintf.html" xlink:title="\N" target="_top">
<polygon fill="#c4cff3" stroke="#000000" points="848,-90.5 848,-127.5 980,-127.5 980,-90.5 848,-90.5"/>
<text text-anchor="middle" x="914" y="-102.7" font-family="sans" font-size="26.00" fill="#000000">vasprintf</text>
</a>
</g>
</g>
<!-- vasprintf&#45;&gt;_vscprintf_so -->
<g id="edge2" class="edge">
<title>vasprintf&#45;&gt;_vscprintf_so</title>
<path fill="none" stroke="#000000" d="M935.75,-90.3267C935.75,-90.3267 935.75,-63.6674 935.75,-63.6674"/>
<polygon fill="#000000" stroke="#000000" points="939.2501,-63.6673 935.75,-53.6674 932.2501,-63.6674 939.2501,-63.6673"/>
</g>
<!-- ArqNovo -->
<g id="node5" class="node">
<title>ArqNovo</title>
<g id="a_node5"><a xlink:href="Lista.html" xlink:title="\N" target="_top">
<polygon fill="#a7f5a3" stroke="#000000" points="681,-164.5 681,-201.5 809,-201.5 809,-164.5 681,-164.5"/>
<text text-anchor="middle" x="745" y="-176.7" font-family="sans" font-size="26.00" fill="#000000">ArqNovo</text>
</a>
</g>
</g>
<!-- ArqNovo&#45;&gt;asprintf -->
<g id="edge3" class="edge">
<title>ArqNovo&#45;&gt;asprintf</title>
<path fill="none" stroke="#000000" d="M745,-164.0664C745,-154.9632 745,-146 745,-146 745,-146 1007.75,-146 1007.75,-146 1007.75,-146 1007.75,-137.9336 1007.75,-137.9336"/>
<polygon fill="#000000" stroke="#000000" points="1011.2501,-137.9335 1007.75,-127.9336 1004.2501,-137.9336 1011.2501,-137.9335"/>
</g>
<!-- Dir -->
<g id="node6" class="node">
<title>Dir</title>
<g id="a_node6"><a xlink:href="Dir.html" xlink:title="\N" target="_top">
<polygon fill="#e9d66b" stroke="#000000" points="215.5,-90.5 215.5,-127.5 270.5,-127.5 270.5,-90.5 215.5,-90.5"/>
<text text-anchor="middle" x="243" y="-102.7" font-family="sans" font-size="26.00" fill="#000000">Dir</text>
</a>
</g>
</g>
<!-- Dir&#45;&gt;Dir -->
<g id="edge4" class="edge">
<title>Dir&#45;&gt;Dir</title>
<path fill="none" stroke="#000000" d="M233.8333,-127.5205C233.8333,-132.7275 233.8333,-137 233.8333,-137 233.8333,-137 171,-137 171,-137 171,-137 171,-72 171,-72 171,-72 243,-72 243,-72 243,-72 243,-80.0664 243,-80.0664"/>
<polygon fill="#000000" stroke="#000000" points="239.5001,-80.0664 243,-90.0664 246.5001,-80.0665 239.5001,-80.0664"/>
</g>
<!-- ArqLista -->
<g id="node7" class="node">
<title>ArqLista</title>
<g id="a_node7"><a xlink:href="Lista.html" xlink:title="\N" target="_top">
<polygon fill="#a7f5a3" stroke="#000000" points="1317.5,-164.5 1317.5,-201.5 1440.5,-201.5 1440.5,-164.5 1317.5,-164.5"/>
<text text-anchor="middle" x="1379" y="-176.7" font-family="sans" font-size="26.00" fill="#000000">ArqLista</text>
</a>
</g>
</g>
<!-- ArqLista&#45;&gt;asprintf -->
<g id="edge6" class="edge">
<title>ArqLista&#45;&gt;asprintf</title>
<path fill="none" stroke="#000000" d="M1379,-164.2134C1379,-140.2852 1379,-102 1379,-102 1379,-102 1124.119,-102 1124.119,-102"/>
<polygon fill="#000000" stroke="#000000" points="1124.119,-98.5001 1114.119,-102 1124.1189,-105.5001 1124.119,-98.5001"/>
</g>
<!-- Grava -->
<g id="node8" class="node">
<title>Grava</title>
<g id="a_node8"><a xlink:href="Lista.html" xlink:title="\N" target="_top">
<polygon fill="#a7f5a3" stroke="#000000" points="1055.5,-164.5 1055.5,-201.5 1150.5,-201.5 1150.5,-164.5 1055.5,-164.5"/>
<text text-anchor="middle" x="1103" y="-176.7" font-family="sans" font-size="26.00" fill="#000000">Grava</text>
</a>
</g>
</g>
<!-- Grava&#45;&gt;asprintf -->
<g id="edge7" class="edge">
<title>Grava&#45;&gt;asprintf</title>
<path fill="none" stroke="#000000" d="M1084.75,-164.3267C1084.75,-164.3267 1084.75,-137.6674 1084.75,-137.6674"/>
<polygon fill="#000000" stroke="#000000" points="1088.2501,-137.6673 1084.75,-127.6674 1081.2501,-137.6674 1088.2501,-137.6673"/>
</g>
<!-- Inicializa -->
<g id="node9" class="node">
<title>Inicializa</title>
<g id="a_node9"><a xlink:href="Lista.html" xlink:title="\N" target="_top">
<polygon fill="#a7f5a3" stroke="#000000" points="1169,-164.5 1169,-201.5 1299,-201.5 1299,-164.5 1169,-164.5"/>
<text text-anchor="middle" x="1234" y="-176.7" font-family="sans" font-size="26.00" fill="#000000">Inicializa</text>
</a>
</g>
</g>
<!-- Inicializa&#45;&gt;asprintf -->
<g id="edge8" class="edge">
<title>Inicializa&#45;&gt;asprintf</title>
<path fill="none" stroke="#000000" d="M1234,-164.4187C1234,-144.2852 1234,-115 1234,-115 1234,-115 1124.2839,-115 1124.2839,-115"/>
<polygon fill="#000000" stroke="#000000" points="1124.2839,-111.5001 1114.2839,-115 1124.2838,-118.5001 1124.2839,-111.5001"/>
</g>
<!-- WndProc -->
<g id="node10" class="node">
<title>WndProc</title>
<g id="a_node10"><a xlink:href="WndProc.html" xlink:title="\N" target="_top">
<polygon fill="#e1a95f" stroke="#000000" points="540.5,-238.5 540.5,-275.5 671.5,-275.5 671.5,-238.5 540.5,-238.5"/>
<text text-anchor="middle" x="606" y="-250.7" font-family="sans" font-size="26.00" fill="#000000">WndProc</text>
</a>
</g>
</g>
<!-- WndProc&#45;&gt;Grava -->
<g id="edge12" class="edge">
<title>WndProc&#45;&gt;Grava</title>
<path fill="none" stroke="#000000" d="M671.7413,-257C806.8169,-257 1103,-257 1103,-257 1103,-257 1103,-211.6733 1103,-211.6733"/>
<polygon fill="#000000" stroke="#000000" points="1106.5001,-211.6733 1103,-201.6733 1099.5001,-211.6734 1106.5001,-211.6733"/>
</g>
<!-- WndProc&#45;&gt;Inicializa -->
<g id="edge13" class="edge">
<title>WndProc&#45;&gt;Inicializa</title>
<path fill="none" stroke="#000000" d="M671.7247,-266C832.7666,-266 1234,-266 1234,-266 1234,-266 1234,-211.834 1234,-211.834"/>
<polygon fill="#000000" stroke="#000000" points="1237.5001,-211.8339 1234,-201.834 1230.5001,-211.834 1237.5001,-211.8339"/>
</g>
<!-- PreencheListBox -->
<g id="node11" class="node">
<title>PreencheListBox</title>
<g id="a_node11"><a xlink:href="Lista.html" xlink:title="\N" target="_top">
<polygon fill="#a7f5a3" stroke="#000000" points="126.5,-164.5 126.5,-201.5 359.5,-201.5 359.5,-164.5 126.5,-164.5"/>
<text text-anchor="middle" x="243" y="-176.7" font-family="sans" font-size="26.00" fill="#000000">PreencheListBox</text>
</a>
</g>
</g>
<!-- WndProc&#45;&gt;PreencheListBox -->
<g id="edge9" class="edge">
<title>WndProc&#45;&gt;PreencheListBox</title>
<path fill="none" stroke="#000000" d="M544.75,-238.2647C544.75,-226.677 544.75,-214 544.75,-214 544.75,-214 339.75,-214 339.75,-214 339.75,-214 339.75,-211.748 339.75,-211.748"/>
<polygon fill="#000000" stroke="#000000" points="343.2501,-211.7479 339.75,-201.748 336.2501,-211.748 343.2501,-211.7479"/>
</g>
<!-- Corpo -->
<g id="node12" class="node">
<title>Corpo</title>
<g id="a_node12"><a xlink:href="Lista.html" xlink:title="\N" target="_top">
<polygon fill="#a7f5a3" stroke="#000000" points="15.5,-164.5 15.5,-201.5 108.5,-201.5 108.5,-164.5 15.5,-164.5"/>
<text text-anchor="middle" x="62" y="-176.7" font-family="sans" font-size="26.00" fill="#000000">Corpo</text>
</a>
</g>
</g>
<!-- WndProc&#45;&gt;Corpo -->
<g id="edge10" class="edge">
<title>WndProc&#45;&gt;Corpo</title>
<path fill="none" stroke="#000000" d="M542.625,-238.252C542.625,-231.7236 542.625,-226 542.625,-226 542.625,-226 72,-226 72,-226 72,-226 72,-211.7353 72,-211.7353"/>
<polygon fill="#000000" stroke="#000000" points="75.5001,-211.7353 72,-201.7353 68.5001,-211.7354 75.5001,-211.7353"/>
</g>
<!-- Le -->
<g id="node13" class="node">
<title>Le</title>
<g id="a_node13"><a xlink:href="Lista.html" xlink:title="\N" target="_top">
<polygon fill="#a7f5a3" stroke="#000000" points="983,-164.5 983,-201.5 1037,-201.5 1037,-164.5 983,-164.5"/>
<text text-anchor="middle" x="1010" y="-176.7" font-family="sans" font-size="26.00" fill="#000000">Le</text>
</a>
</g>
</g>
<!-- WndProc&#45;&gt;Le -->
<g id="edge11" class="edge">
<title>WndProc&#45;&gt;Le</title>
<path fill="none" stroke="#000000" d="M671.8087,-247C786.2869,-247 1010,-247 1010,-247 1010,-247 1010,-211.5115 1010,-211.5115"/>
<polygon fill="#000000" stroke="#000000" points="1013.5001,-211.5114 1010,-201.5115 1006.5001,-211.5115 1013.5001,-211.5114"/>
</g>
<!-- Cabecalho -->
<g id="node14" class="node">
<title>Cabecalho</title>
<g id="a_node14"><a xlink:href="Lista.html" xlink:title="\N" target="_top">
<polygon fill="#a7f5a3" stroke="#000000" points="377.5,-164.5 377.5,-201.5 530.5,-201.5 530.5,-164.5 377.5,-164.5"/>
<text text-anchor="middle" x="454" y="-176.7" font-family="sans" font-size="26.00" fill="#000000">Cabecalho</text>
</a>
</g>
</g>
<!-- WndProc&#45;&gt;Cabecalho -->
<g id="edge14" class="edge">
<title>WndProc&#45;&gt;Cabecalho</title>
<path fill="none" stroke="#000000" d="M546.875,-238.3267C546.875,-216.4048 546.875,-183 546.875,-183 546.875,-183 540.6974,-183 540.6974,-183"/>
<polygon fill="#000000" stroke="#000000" points="540.6974,-179.5001 530.6974,-183 540.6974,-186.5001 540.6974,-179.5001"/>
</g>
<!-- Rodape -->
<g id="node15" class="node">
<title>Rodape</title>
<g id="a_node15"><a xlink:href="Lista.html" xlink:title="\N" target="_top">
<polygon fill="#a7f5a3" stroke="#000000" points="549,-164.5 549,-201.5 663,-201.5 663,-164.5 549,-164.5"/>
<text text-anchor="middle" x="606" y="-176.7" font-family="sans" font-size="26.00" fill="#000000">Rodape</text>
</a>
</g>
</g>
<!-- WndProc&#45;&gt;Rodape -->
<g id="edge15" class="edge">
<title>WndProc&#45;&gt;Rodape</title>
<path fill="none" stroke="#000000" d="M606,-238.3267C606,-238.3267 606,-211.6674 606,-211.6674"/>
<polygon fill="#000000" stroke="#000000" points="609.5001,-211.6673 606,-201.6674 602.5001,-211.6674 609.5001,-211.6673"/>
</g>
<!-- PreencheListBox&#45;&gt;Dir -->
<g id="edge16" class="edge">
<title>PreencheListBox&#45;&gt;Dir</title>
<path fill="none" stroke="#000000" d="M252.1667,-164.3267C252.1667,-164.3267 252.1667,-137.6674 252.1667,-137.6674"/>
<polygon fill="#000000" stroke="#000000" points="255.6668,-137.6673 252.1667,-127.6674 248.6668,-137.6674 255.6668,-137.6673"/>
</g>
<!-- Le&#45;&gt;asprintf -->
<g id="edge17" class="edge">
<title>Le&#45;&gt;asprintf</title>
<path fill="none" stroke="#000000" d="M1027.25,-164.3267C1027.25,-164.3267 1027.25,-137.6674 1027.25,-137.6674"/>
<polygon fill="#000000" stroke="#000000" points="1030.7501,-137.6673 1027.25,-127.6674 1023.7501,-137.6674 1030.7501,-137.6673"/>
</g>
<!-- WinMain -->
<g id="node16" class="node">
<title>WinMain</title>
<g id="a_node16"><a xlink:href="WinMain.html" xlink:title="\N" target="_top">
<polygon fill="#fffab8" stroke="#000000" points="375,-238.5 375,-275.5 503,-275.5 503,-238.5 375,-238.5"/>
<text text-anchor="middle" x="439" y="-250.7" font-family="sans" font-size="26.00" fill="#000000">WinMain</text>
</a>
</g>
</g>
<!-- Trace -->
<g id="node17" class="node">
<title>Trace</title>
<g id="a_node17"><a xlink:href="Trace.html" xlink:title="\N" target="_top">
<polygon fill="#cae00d" stroke="#000000" points="234,-238.5 234,-275.5 320,-275.5 320,-238.5 234,-238.5"/>
<text text-anchor="middle" x="277" y="-250.7" font-family="sans" font-size="26.00" fill="#000000">Trace</text>
</a>
</g>
</g>
<!-- NTrace -->
<g id="node18" class="node">
<title>NTrace</title>
<g id="a_node18"><a xlink:href="Trace.html" xlink:title="\N" target="_top">
<polygon fill="#cae00d" stroke="#000000" points="35.5,-238.5 35.5,-275.5 140.5,-275.5 140.5,-238.5 35.5,-238.5"/>
<text text-anchor="middle" x="88" y="-250.7" font-family="sans" font-size="26.00" fill="#000000">NTrace</text>
</a>
</g>
</g>
</g>
</svg>
