<?xml version="1.0" encoding="UTF-8" standalone="no"?>
<!DOCTYPE svg PUBLIC "-//W3C//DTD SVG 1.1//EN"
 "http://www.w3.org/Graphics/SVG/1.1/DTD/svg11.dtd">
<!-- Generated by graphviz version 2.40.1 (20161225.0304)
 -->
<!-- Title: callgraph Pages: 1 -->
<svg width="577pt" height="411pt"
 viewBox="0.00 0.00 831.00 592.00" xmlns="http://www.w3.org/2000/svg" xmlns:xlink="http://www.w3.org/1999/xlink">
<g id="graph0" class="graph" transform="scale(.6944 .6944) rotate(0) translate(4 588)">
<title>callgraph</title>
<polygon fill="#ffffff" stroke="transparent" points="-4,4 -4,-588 827,-588 827,4 -4,4"/>
<g id="clust1" class="cluster">
<title>cluster</title>
<polygon fill="#ffffff" stroke="#ffffff" points="8,-8 8,-576 815,-576 815,-8 8,-8"/>
<text text-anchor="middle" x="411.5" y="-570.2" font-family="Bitstream Vera Sans" font-size="1.00" fill="#000000">Cores</text>
</g>
<!-- Preenche -->
<g id="node1" class="node">
<title>Preenche</title>
<g id="a_node1"><a xlink:href="Lista.html" xlink:title="\N" target="_top">
<polygon fill="#a7f5a3" stroke="#000000" points="230.5,-296.5 230.5,-333.5 368.5,-333.5 368.5,-296.5 230.5,-296.5"/>
<text text-anchor="middle" x="299.5" y="-308.7" font-family="sans" font-size="26.00" fill="#000000">Preenche</text>
</a>
</g>
</g>
<!-- asprintf -->
<g id="node2" class="node">
<title>asprintf</title>
<g id="a_node2"><a xlink:href="asprintf.html" xlink:title="\N" target="_top">
<polygon fill="#c4cff3" stroke="#000000" points="460,-380.5 460,-417.5 576,-417.5 576,-380.5 460,-380.5"/>
<text text-anchor="middle" x="518" y="-392.7" font-family="sans" font-size="26.00" fill="#000000">asprintf</text>
</a>
</g>
</g>
<!-- Preenche&#45;&gt;asprintf -->
<g id="edge1" class="edge">
<title>Preenche&#45;&gt;asprintf</title>
<path fill="none" stroke="#000000" d="M368.6331,-326.5052C384.6406,-330.5493 401.2854,-335.92 416,-343 434.2655,-351.7885 434.5227,-360.7331 452,-371 454.844,-372.6707 457.8064,-374.2955 460.8323,-375.8661"/>
<polygon fill="#000000" stroke="#000000" points="459.5281,-379.1253 470.0452,-380.4066 462.6226,-372.8464 459.5281,-379.1253"/>
</g>
<!-- _vscprintf_so -->
<g id="node9" class="node">
<title>_vscprintf_so</title>
<g id="a_node9"><a xlink:href="asprintf.html" xlink:title="\N" target="_top">
<polygon fill="#c4cff3" stroke="#000000" points="620,-352.5 620,-389.5 807,-389.5 807,-352.5 620,-352.5"/>
<text text-anchor="middle" x="713.5" y="-364.7" font-family="sans" font-size="26.00" fill="#000000">_vscprintf_so</text>
</a>
</g>
</g>
<!-- asprintf&#45;&gt;_vscprintf_so -->
<g id="edge16" class="edge">
<title>asprintf&#45;&gt;_vscprintf_so</title>
<path fill="none" stroke="#000000" d="M576.1271,-390.6749C586.7477,-389.1538 598.1195,-387.5251 609.6049,-385.8801"/>
<polygon fill="#000000" stroke="#000000" points="610.3086,-389.3151 619.7113,-384.4326 609.3161,-382.3858 610.3086,-389.3151"/>
</g>
<!-- Grava -->
<g id="node3" class="node">
<title>Grava</title>
<g id="a_node3"><a xlink:href="Lista.html" xlink:title="\N" target="_top">
<polygon fill="#a7f5a3" stroke="#000000" points="252,-464.5 252,-501.5 347,-501.5 347,-464.5 252,-464.5"/>
<text text-anchor="middle" x="299.5" y="-476.7" font-family="sans" font-size="26.00" fill="#000000">Grava</text>
</a>
</g>
</g>
<!-- Grava&#45;&gt;asprintf -->
<g id="edge2" class="edge">
<title>Grava&#45;&gt;asprintf</title>
<path fill="none" stroke="#000000" d="M347.1362,-474.5466C368.5845,-469.9837 393.9792,-463.5152 416,-455 438.1835,-446.4219 461.5364,-433.8894 480.2912,-422.8542"/>
<polygon fill="#000000" stroke="#000000" points="482.3195,-425.7193 489.1034,-417.5811 478.7252,-419.7126 482.3195,-425.7193"/>
</g>
<!-- Dir -->
<g id="node4" class="node">
<title>Dir</title>
<g id="a_node4"><a xlink:href="Dir.html" xlink:title="\N" target="_top">
<polygon fill="#e9d66b" stroke="#000000" points="490.5,-16.5 490.5,-53.5 545.5,-53.5 545.5,-16.5 490.5,-16.5"/>
<text text-anchor="middle" x="518" y="-28.7" font-family="sans" font-size="26.00" fill="#000000">Dir</text>
</a>
</g>
</g>
<!-- Dir&#45;&gt;Dir -->
<g id="edge3" class="edge">
<title>Dir&#45;&gt;Dir</title>
<path fill="none" stroke="#000000" d="M490.4368,-46.1742C472.6267,-58.2692 481.8145,-72 518,-72 547.1181,-72 558.7544,-63.109 552.9091,-53.3338"/>
<polygon fill="#000000" stroke="#000000" points="555.1674,-50.6474 545.5632,-46.1742 550.2817,-55.6604 555.1674,-50.6474"/>
</g>
<!-- PreencheListBox -->
<g id="node5" class="node">
<title>PreencheListBox</title>
<g id="a_node5"><a xlink:href="Lista.html" xlink:title="\N" target="_top">
<polygon fill="#a7f5a3" stroke="#000000" points="183,-16.5 183,-53.5 416,-53.5 416,-16.5 183,-16.5"/>
<text text-anchor="middle" x="299.5" y="-28.7" font-family="sans" font-size="26.00" fill="#000000">PreencheListBox</text>
</a>
</g>
</g>
<!-- PreencheListBox&#45;&gt;Dir -->
<g id="edge4" class="edge">
<title>PreencheListBox&#45;&gt;Dir</title>
<path fill="none" stroke="#000000" d="M416.1066,-35C439.3987,-35 462.2427,-35 480.3783,-35"/>
<polygon fill="#000000" stroke="#000000" points="480.4799,-38.5001 490.4799,-35 480.4798,-31.5001 480.4799,-38.5001"/>
</g>
<!-- ArqLista -->
<g id="node6" class="node">
<title>ArqLista</title>
<g id="a_node6"><a xlink:href="Lista.html" xlink:title="\N" target="_top">
<polygon fill="#a7f5a3" stroke="#000000" points="238,-184.5 238,-221.5 361,-221.5 361,-184.5 238,-184.5"/>
<text text-anchor="middle" x="299.5" y="-196.7" font-family="sans" font-size="26.00" fill="#000000">ArqLista</text>
</a>
</g>
</g>
<!-- ArqLista&#45;&gt;asprintf -->
<g id="edge5" class="edge">
<title>ArqLista&#45;&gt;asprintf</title>
<path fill="none" stroke="#000000" d="M361.2511,-205.4899C380.994,-209.2447 401.4716,-216.6997 416,-231 461.787,-276.0683 410.0914,-322.3043 452,-371 452.8677,-372.0083 453.7781,-372.9812 454.7259,-373.9199"/>
<polygon fill="#000000" stroke="#000000" points="452.706,-376.7912 462.6429,-380.4667 457.1669,-371.3967 452.706,-376.7912"/>
</g>
<!-- Inicializa -->
<g id="node7" class="node">
<title>Inicializa</title>
<g id="a_node7"><a xlink:href="Lista.html" xlink:title="\N" target="_top">
<polygon fill="#a7f5a3" stroke="#000000" points="234.5,-520.5 234.5,-557.5 364.5,-557.5 364.5,-520.5 234.5,-520.5"/>
<text text-anchor="middle" x="299.5" y="-532.7" font-family="sans" font-size="26.00" fill="#000000">Inicializa</text>
</a>
</g>
</g>
<!-- Inicializa&#45;&gt;asprintf -->
<g id="edge6" class="edge">
<title>Inicializa&#45;&gt;asprintf</title>
<path fill="none" stroke="#000000" d="M364.716,-530.4743C382.189,-526.324 400.5115,-520.158 416,-511 451.8439,-489.8063 482.3673,-451.986 500.4405,-426.2127"/>
<polygon fill="#000000" stroke="#000000" points="503.5438,-427.8753 506.3022,-417.6458 497.7667,-423.9224 503.5438,-427.8753"/>
</g>
<!-- vasprintf -->
<g id="node8" class="node">
<title>vasprintf</title>
<g id="a_node8"><a xlink:href="asprintf.html" xlink:title="\N" target="_top">
<polygon fill="#c4cff3" stroke="#000000" points="452,-324.5 452,-361.5 584,-361.5 584,-324.5 452,-324.5"/>
<text text-anchor="middle" x="518" y="-336.7" font-family="sans" font-size="26.00" fill="#000000">vasprintf</text>
</a>
</g>
</g>
<!-- vasprintf&#45;&gt;_vscprintf_so -->
<g id="edge7" class="edge">
<title>vasprintf&#45;&gt;_vscprintf_so</title>
<path fill="none" stroke="#000000" d="M584.1874,-352.4795C592.5577,-353.6783 601.2739,-354.9267 610.0516,-356.1839"/>
<polygon fill="#000000" stroke="#000000" points="609.5777,-359.6516 619.9729,-357.6048 610.5701,-352.7223 609.5777,-359.6516"/>
</g>
<!-- WndProc -->
<g id="node10" class="node">
<title>WndProc</title>
<g id="a_node10"><a xlink:href="WndProc.html" xlink:title="\N" target="_top">
<polygon fill="#e1a95f" stroke="#000000" points="16,-240.5 16,-277.5 147,-277.5 147,-240.5 16,-240.5"/>
<text text-anchor="middle" x="81.5" y="-252.7" font-family="sans" font-size="26.00" fill="#000000">WndProc</text>
</a>
</g>
</g>
<!-- WndProc&#45;&gt;Grava -->
<g id="edge9" class="edge">
<title>WndProc&#45;&gt;Grava</title>
<path fill="none" stroke="#000000" d="M85.6444,-277.7168C95.3574,-317.0156 123.4177,-408.3347 183,-455 199.6716,-468.0573 221.5064,-475.1576 241.7618,-478.9738"/>
<polygon fill="#000000" stroke="#000000" points="241.424,-482.4653 251.8604,-480.6398 242.5634,-475.5587 241.424,-482.4653"/>
</g>
<!-- WndProc&#45;&gt;PreencheListBox -->
<g id="edge8" class="edge">
<title>WndProc&#45;&gt;PreencheListBox</title>
<path fill="none" stroke="#000000" d="M128.6698,-240.3416C135.621,-235.8696 142.0841,-230.4663 147,-224 191.3747,-165.6298 131.5666,-115.2571 183,-63 184.0944,-61.8881 185.2246,-60.8173 186.3877,-59.7862"/>
<polygon fill="#000000" stroke="#000000" points="188.7149,-62.4118 194.5083,-53.5412 184.4476,-56.8629 188.7149,-62.4118"/>
</g>
<!-- WndProc&#45;&gt;Inicializa -->
<g id="edge10" class="edge">
<title>WndProc&#45;&gt;Inicializa</title>
<path fill="none" stroke="#000000" d="M83.3041,-277.8421C88.8478,-324.8408 109.972,-447.9908 183,-511 194.6922,-521.0882 209.4003,-527.68 224.3919,-531.955"/>
<polygon fill="#000000" stroke="#000000" points="223.7032,-535.3909 234.2555,-534.4432 225.4154,-528.6035 223.7032,-535.3909"/>
</g>
<!-- Cabecalho -->
<g id="node11" class="node">
<title>Cabecalho</title>
<g id="a_node11"><a xlink:href="Lista.html" xlink:title="\N" target="_top">
<polygon fill="#a7f5a3" stroke="#000000" points="223,-72.5 223,-109.5 376,-109.5 376,-72.5 223,-72.5"/>
<text text-anchor="middle" x="299.5" y="-84.7" font-family="sans" font-size="26.00" fill="#000000">Cabecalho</text>
</a>
</g>
</g>
<!-- WndProc&#45;&gt;Cabecalho -->
<g id="edge11" class="edge">
<title>WndProc&#45;&gt;Cabecalho</title>
<path fill="none" stroke="#000000" d="M127.0694,-240.4879C134.4592,-235.9451 141.4844,-230.48 147,-224 178.9761,-186.4327 146.5085,-152.1987 183,-119 191.7152,-111.0712 202.2768,-105.2803 213.4413,-101.0693"/>
<polygon fill="#000000" stroke="#000000" points="214.5622,-104.3851 222.9339,-97.8915 212.34,-97.7472 214.5622,-104.3851"/>
</g>
<!-- Rodape -->
<g id="node12" class="node">
<title>Rodape</title>
<g id="a_node12"><a xlink:href="Lista.html" xlink:title="\N" target="_top">
<polygon fill="#a7f5a3" stroke="#000000" points="242.5,-128.5 242.5,-165.5 356.5,-165.5 356.5,-128.5 242.5,-128.5"/>
<text text-anchor="middle" x="299.5" y="-140.7" font-family="sans" font-size="26.00" fill="#000000">Rodape</text>
</a>
</g>
</g>
<!-- WndProc&#45;&gt;Rodape -->
<g id="edge12" class="edge">
<title>WndProc&#45;&gt;Rodape</title>
<path fill="none" stroke="#000000" d="M123.1544,-240.3632C131.504,-235.6575 139.8866,-230.1633 147,-224 167.4238,-206.3042 160.4928,-189.9565 183,-175 197.6276,-165.2797 215.2784,-158.9253 232.3674,-154.7741"/>
<polygon fill="#000000" stroke="#000000" points="233.3253,-158.147 242.337,-152.5757 231.8179,-151.3112 233.3253,-158.147"/>
</g>
<!-- Le -->
<g id="node13" class="node">
<title>Le</title>
<g id="a_node13"><a xlink:href="Lista.html" xlink:title="\N" target="_top">
<polygon fill="#a7f5a3" stroke="#000000" points="272.5,-408.5 272.5,-445.5 326.5,-445.5 326.5,-408.5 272.5,-408.5"/>
<text text-anchor="middle" x="299.5" y="-420.7" font-family="sans" font-size="26.00" fill="#000000">Le</text>
</a>
</g>
</g>
<!-- WndProc&#45;&gt;Le -->
<g id="edge13" class="edge">
<title>WndProc&#45;&gt;Le</title>
<path fill="none" stroke="#000000" d="M89.7068,-277.713C104.0387,-308.1134 136.5906,-367.9479 183,-399 206.4937,-414.7194 237.8719,-421.64 262.1442,-424.6737"/>
<polygon fill="#000000" stroke="#000000" points="262.0866,-428.1877 272.4044,-425.7811 262.8378,-421.2282 262.0866,-428.1877"/>
</g>
<!-- Corpo -->
<g id="node14" class="node">
<title>Corpo</title>
<g id="a_node14"><a xlink:href="Lista.html" xlink:title="\N" target="_top">
<polygon fill="#a7f5a3" stroke="#000000" points="253,-240.5 253,-277.5 346,-277.5 346,-240.5 253,-240.5"/>
<text text-anchor="middle" x="299.5" y="-252.7" font-family="sans" font-size="26.00" fill="#000000">Corpo</text>
</a>
</g>
</g>
<!-- WndProc&#45;&gt;Corpo -->
<g id="edge14" class="edge">
<title>WndProc&#45;&gt;Corpo</title>
<path fill="none" stroke="#000000" d="M147.2028,-259C177.7065,-259 213.6121,-259 242.8967,-259"/>
<polygon fill="#000000" stroke="#000000" points="242.9592,-262.5001 252.9592,-259 242.9591,-255.5001 242.9592,-262.5001"/>
</g>
<!-- Le&#45;&gt;asprintf -->
<g id="edge17" class="edge">
<title>Le&#45;&gt;asprintf</title>
<path fill="none" stroke="#000000" d="M326.7314,-423.5104C357.2746,-419.5964 407.9732,-413.0995 449.5016,-407.7778"/>
<polygon fill="#000000" stroke="#000000" points="450.0965,-411.2303 459.5705,-406.4875 449.2067,-404.2871 450.0965,-411.2303"/>
</g>
<!-- ArqNovo -->
<g id="node15" class="node">
<title>ArqNovo</title>
<g id="a_node15"><a xlink:href="Lista.html" xlink:title="\N" target="_top">
<polygon fill="#a7f5a3" stroke="#000000" points="235.5,-352.5 235.5,-389.5 363.5,-389.5 363.5,-352.5 235.5,-352.5"/>
<text text-anchor="middle" x="299.5" y="-364.7" font-family="sans" font-size="26.00" fill="#000000">ArqNovo</text>
</a>
</g>
</g>
<!-- ArqNovo&#45;&gt;asprintf -->
<g id="edge15" class="edge">
<title>ArqNovo&#45;&gt;asprintf</title>
<path fill="none" stroke="#000000" d="M363.5808,-379.2117C390.7214,-382.6897 422.3759,-386.7461 449.9346,-390.2777"/>
<polygon fill="#000000" stroke="#000000" points="449.5227,-393.7534 459.8865,-391.553 450.4125,-386.8102 449.5227,-393.7534"/>
</g>
<!-- NTrace -->
<g id="node16" class="node">
<title>NTrace</title>
<g id="a_node16"><a xlink:href="Trace.html" xlink:title="\N" target="_top">
<polygon fill="#cae00d" stroke="#000000" points="29,-177.5 29,-214.5 134,-214.5 134,-177.5 29,-177.5"/>
<text text-anchor="middle" x="81.5" y="-189.7" font-family="sans" font-size="26.00" fill="#000000">NTrace</text>
</a>
</g>
</g>
<!-- Trace -->
<g id="node17" class="node">
<title>Trace</title>
<g id="a_node17"><a xlink:href="Trace.html" xlink:title="\N" target="_top">
<polygon fill="#cae00d" stroke="#000000" points="38.5,-107.5 38.5,-144.5 124.5,-144.5 124.5,-107.5 38.5,-107.5"/>
<text text-anchor="middle" x="81.5" y="-119.7" font-family="sans" font-size="26.00" fill="#000000">Trace</text>
</a>
</g>
</g>
<!-- WinMain -->
<g id="node18" class="node">
<title>WinMain</title>
<g id="a_node18"><a xlink:href="WinMain.html" xlink:title="\N" target="_top">
<polygon fill="#fffab8" stroke="#000000" points="17.5,-23.5 17.5,-60.5 145.5,-60.5 145.5,-23.5 17.5,-23.5"/>
<text text-anchor="middle" x="81.5" y="-35.7" font-family="sans" font-size="26.00" fill="#000000">WinMain</text>
</a>
</g>
</g>
</g>
</svg>
